<svg version="1.1" xmlns="http://www.w3.org/2000/svg" xmlns:xlink="http://www.w3.org/1999/xlink" width="479.9777" height="360" viewBox="0,0,479.9777,360"><g transform="translate(-0.1083,0)"><g data-paper-data="{&quot;isPaintingLayer&quot;:true}" fill-rule="nonzero" stroke="none" stroke-linecap="butt" stroke-linejoin="miter" stroke-miterlimit="10" stroke-dasharray="" stroke-dashoffset="0" style="mix-blend-mode: normal"><path d="M0.1083,0h479.9777v360h-479.9777z" fill="#d0f6ff" stroke-width="1.00207"/><path d="M310.52307,21.54048c0.13364,0.08018 0.25395,0.1637 0.36208,0.24983c0.03072,-0.0076 0.04763,-0.01099 0.04763,-0.01099c5.703,-1.13717 11.46619,-1.75354 17.22741,-2.22626c4.32752,-0.35508 8.75708,0.40406 13.07727,0.00365c11.08393,-1.02729 22.41474,-0.55873 33.58643,-0.55873c21.31572,0 42.63167,-0.0292 63.94737,0c2.97624,0.00408 5.77534,0.55657 8.74494,0.54656c4.66148,0 13.35419,-1.80975 16.34676,2.84102c0.76078,1.18234 0.58767,2.74986 0.86936,4.12731c0.74988,3.66681 0.47893,7.26351 1.09819,10.95979c2.71591,16.21086 -0.50731,32.84865 -0.51229,49.23685c-2.16008,30.05449 3.97186,59.12364 7.64861,88.76269c0.00887,13.02341 3.20199,25.82893 4.36513,38.71467c0.37615,4.1671 -0.47501,7.44156 -1.09968,11.48298c-1.02677,6.64285 -1.06612,13.90658 -1.08068,20.641c-1.42945,10.00612 -1.37961,20.18487 -2.1844,30.26373c-0.04218,0.5283 -1.04764,5.72748 -1.09718,6.38468c-0.46583,6.18021 -0.54634,12.45764 -1.09677,18.62314c-0.6585,7.37607 -1.62751,14.70996 -1.62751,22.16256c0,4.68337 0.52964,9.27387 0.53436,13.90199l0.50008,2.50042c0.03842,0.17418 0.05867,0.35518 0.05867,0.54091c0,1.38071 -1.11929,2.5 -2.5,2.5c-0.48518,0 -0.93808,-0.13821 -1.32147,-0.37741l-2.69756,-1.61854l0.0189,-0.03151c-10.02468,-3.01336 -20.26878,-6.54334 -30.63927,-7.27257c-12.61132,-0.8868 -25.37277,-0.53804 -38.05291,-0.53804c-6.16749,-0.01451 -11.72265,2.09346 -17.78973,2.72059c-8.12928,0.84029 -16.2567,1.50297 -24.32046,3.23658c-9.46345,2.03452 -19.2327,4.38779 -28.94244,4.42744c-5.65974,-0.0227 -11.10321,1.06858 -16.69698,1.62751c-4.04916,0.40459 -7.7989,0.39944 -11.85964,1.07127c-2.29792,0.38018 -7.90924,1.68123 -9.54437,-0.45765c-1.9256,-2.51885 1.48596,-6.53277 2.52128,-8.58483c1.12974,-2.23922 1.21796,-3.73019 2.05161,-6.23074c2.30578,-6.91622 3.95169,-13.85958 5.38852,-21.02385c4.76002,-23.22111 3.23066,-47.46568 3.23066,-71.10819c0,-3.36603 0.26434,-6.85276 0.00629,-10.20739c-0.61561,-8.00289 -3.20045,-15.89974 -4.87294,-23.71673c-2.0542,-9.60103 -3.41226,-19.35724 -5.45603,-28.92367c-0.83156,-3.89235 -0.97521,-7.27656 -2.21589,-11.08374c-0.03027,-4.42412 -1.25932,-8.39877 -1.66344,-12.7651c-0.70793,-7.64899 -2.0937,-15.29802 -2.73502,-22.98444c-0.9108,-10.91621 -0.55285,-21.99666 -0.55285,-32.97074c0,-17.44325 1.0577,-34.39818 9.00532,-50.30119c1.35926,-2.71985 3.24173,-6.12524 5.39088,-8.30868c1.18251,-1.20138 2.59654,-2.19896 3.59368,-3.55814c2.25999,-3.01332 3.72508,-6.19794 5.93752,-9.18647l1.57056,-2.62406c0,0 1.28624,-2.14373 3.42997,-0.85749zM310.42622,26.5574l-0.75445,1.25457c-2.27686,2.99065 -3.78707,6.33026 -6.08677,9.39653c-2.95521,3.87417 -6.23577,6.55206 -8.50532,11.08864c-7.60496,15.20147 -8.48456,31.41058 -8.48456,48.07938c0,10.85588 -0.35831,21.8182 0.54027,32.6163c0.6382,7.66909 2.04969,15.28902 2.73056,22.92649c0.37653,4.22359 1.64896,8.08578 1.61591,12.3766c1.24695,3.64852 1.35449,7.04737 2.15658,10.77861c1.84318,8.57419 3.4998,17.13242 4.94695,25.83028c1.53106,9.2022 4.77548,18.22977 5.49331,27.56171c0.2671,3.47237 0.00629,7.07785 0.00629,10.56184c0,24.05535 1.30387,48.4378 -3.32804,72.09019c-1.47696,7.36083 -3.17369,14.49968 -5.54266,21.60773c-1.09673,3.29072 -0.85293,3.92624 -2.32086,6.88667c-0.41976,0.84655 -0.8485,1.70819 -1.43125,2.45076c1.94364,-0.82381 4.53271,-0.76592 6.39275,-1.10168c3.05532,-0.55151 5.90417,-0.27055 8.9493,-0.57535c5.75955,-0.57651 11.36464,-1.63174 17.18966,-1.65184c9.33104,0.04566 18.808,-2.37528 27.89966,-4.3175c8.23837,-1.75993 16.55733,-2.50695 24.86982,-3.32212c6.24361,-0.61229 11.92382,-2.73156 18.28315,-2.745c17.60446,0 35.52217,-1.18272 52.62712,3.37815c3.94877,1.0529 7.96375,2.26627 11.92288,3.25428c1.77408,0.44273 3.72913,0.35953 5.07335,1.03564c-0.12186,-4.07612 -0.52416,-8.14508 -0.52416,-12.27332c0,-7.61729 0.95314,-15.11666 1.65184,-22.65525c0.56817,-6.13023 0.60763,-12.39381 1.08947,-18.54285c0.17043,-2.17502 0.93466,-4.27625 1.10315,-6.45142c0.77749,-10.037 0.75087,-20.17734 2.17397,-30.13903c-0.01674,-6.80114 0.07747,-14.18426 1.10556,-20.89747c0.57011,-3.72267 1.43624,-6.56365 1.08655,-10.37937c-1.18562,-12.93726 -4.38895,-25.81931 -4.37981,-38.89667c-3.75393,-29.78302 -9.8458,-59.04637 -7.65503,-89.25351c-0.00137,-4.36749 -0.084,-8.80533 0.13279,-13.16867c0.44596,-8.97601 2.21945,-18.01078 1.51743,-27.02124c-0.31471,-4.0393 -1.36896,-8.03189 -1.64555,-12.09341c-0.1867,-2.74157 0.22875,-6.54665 -0.73564,-9.26318c-0.35614,-1.00318 -2.46659,-0.44701 -2.7828,-0.43833c-3.09122,0.08483 -6.19918,0 -9.2915,0c-2.08102,-0.00603 -4.1462,-0.36305 -6.21835,-0.55508c-7.24134,-0.67106 -14.92664,0.00852 -22.20271,0.00852c-14.75709,0 -29.51417,0 -44.27126,0c-11.01093,0 -22.17007,-0.44082 -33.09374,0.53439c-4.35374,0.38868 -8.80465,-0.36503 -13.15755,0.00365c-5.57299,0.47202 -11.14093,1.039 -16.65923,2.1462c0,0 -0.73931,0.14786 -1.48713,-0.12482z" fill="#000000" stroke-width="0.5"/><path d="M311.8935,26.63633c5.5183,-1.10721 11.09079,-1.6759 16.66378,-2.14791c4.35291,-0.36868 8.80752,0.38399 13.16126,-0.00468c10.92367,-0.97521 22.09294,-0.53573 33.10387,-0.53573c14.75709,0 29.52773,0.00146 44.28482,0.00146c7.27606,0 14.9674,-0.67766 22.20874,-0.0066c2.07215,0.19203 4.13894,0.5497 6.21996,0.55574c3.09232,0 6.20248,0.08584 9.2937,0.00101c0.31621,-0.00868 2.42734,-0.56451 2.78348,0.43867c0.96439,2.71653 0.55021,6.52228 0.73691,9.26385c0.27659,4.06153 1.33281,8.05524 1.64752,12.09454c0.70202,9.01045 -1.06761,18.04782 -1.51356,27.02383c-0.21678,4.36334 -0.13174,8.80309 -0.13038,13.17057c-2.19077,30.20713 3.9188,59.50479 7.67273,89.28781c-0.00914,13.07736 3.19165,25.9796 4.37727,38.91686c0.34969,3.81572 -0.51832,6.66138 -1.08842,10.38405c-1.02809,6.71321 -1.12668,14.104 -1.10994,20.90514c-1.4231,9.9617 -1.4031,20.10974 -2.18059,30.14674c-0.16849,2.17517 -0.93418,4.27774 -1.10462,6.45275c-0.48184,6.14904 -0.52478,12.41541 -1.09295,18.54564c-0.6987,7.53859 -1.65557,15.04043 -1.65557,22.65773c0,4.12824 0.40085,8.19804 0.52271,12.27416c-1.34422,-0.6761 -3.30028,-0.59236 -5.07436,-1.03509c-3.95913,-0.98801 -7.97658,-2.20016 -11.92535,-3.25306c-17.10495,-4.56087 -35.03817,-3.37389 -52.64263,-3.37389c-6.35933,0.01343 -12.04577,2.13298 -18.28938,2.74527c-8.31249,0.81517 -16.63949,1.56139 -24.87786,3.32132c-9.09166,1.94221 -18.57644,4.36107 -27.90748,4.31541c-5.82503,0.0201 -11.43429,1.07363 -17.19384,1.65014c-3.04513,0.30481 -5.89597,0.02287 -8.95129,0.57438c-1.86004,0.33575 -4.45036,0.2772 -6.394,1.10101c0.58274,-0.74257 1.0115,-1.6042 1.43126,-2.45075c1.46793,-2.96043 1.2238,-3.59614 2.32053,-6.88686c2.36897,-7.10805 4.06405,-14.24786 5.54101,-21.6087c4.63191,-23.65239 3.3141,-48.04759 3.3141,-72.10294c0,-3.48399 0.25813,-7.09347 -0.00898,-10.56583c-0.71784,-9.33194 -3.96827,-18.3745 -5.49933,-27.5767c-1.44715,-8.69786 -3.10476,-17.27149 -4.94794,-25.84568c-0.8021,-3.73124 -0.90876,-7.13589 -2.15571,-10.78441c0.03305,-4.29081 -1.23772,-8.159 -1.61425,-12.38259c-0.68088,-7.63746 -2.08829,-15.26627 -2.72649,-22.93536c-0.89858,-10.7981 -0.53367,-21.7693 -0.53367,-32.62518c0,-16.6688 0.88962,-32.88619 8.49458,-48.08766c2.26956,-4.53658 5.55357,-7.21646 8.50878,-11.09062c2.2997,-3.06627 3.81249,-6.40712 6.08934,-9.39778l0.75477,-1.25472c0.74782,0.27268 1.48748,0.12466 1.48748,0.12466z" data-paper-data="{&quot;noHover&quot;:false,&quot;origItem&quot;:[&quot;Path&quot;,{&quot;applyMatrix&quot;:true,&quot;segments&quot;:[[[310.42622,26.5574],[0.74782,0.27268],[0,0]],[[309.67177,27.81198],[0,0],[-2.27686,2.99065]],[[303.585,37.2085],[2.2997,-3.06627],[-2.95521,3.87417]],[[295.07968,48.29714],[2.26956,-4.53658],[-7.60496,15.20147]],[[286.59513,96.37652],[0,-16.6688],[0,10.85588]],[[287.13539,128.99282],[-0.89858,-10.7981],[0.6382,7.66909]],[[289.86596,151.9193],[-0.68088,-7.63746],[0.37653,4.22359]],[[291.48187,164.2959],[0.03305,-4.29081],[1.24695,3.64852]],[[293.63846,175.07451],[-0.8021,-3.73124],[1.84318,8.57419]],[[298.5854,200.90479],[-1.44715,-8.69786],[1.53106,9.2022]],[[304.07871,228.4665],[-0.71784,-9.33194],[0.2671,3.47237]],[[304.085,239.02834],[0,-3.48399],[0,24.05535]],[[300.75696,311.11853],[4.63191,-23.65239],[-1.47696,7.36083]],[[295.2143,332.72626],[2.36897,-7.10805],[-1.09673,3.29072]],[[292.89345,339.61293],[1.46793,-2.96043],[-0.41976,0.84655]],[[291.4622,342.06369],[0.58274,-0.74257],[1.94364,-0.82381]],[[297.85495,340.96201],[-1.86004,0.33575],[3.05532,-0.55151]],[[306.80425,340.38666],[-3.04513,0.30481],[5.75955,-0.57651]],[[323.99391,338.73482],[-5.82503,0.0201],[9.33104,0.04566]],[[351.89357,334.41732],[-9.09166,1.94221],[8.23837,-1.75993]],[[376.7634,331.0952],[-8.31249,0.81517],[6.24361,-0.61229]],[[395.04654,328.3502],[-6.35933,0.01343],[17.60446,0]],[[447.67366,331.72835],[-17.10495,-4.56087],[3.94877,1.0529]],[[459.59654,334.98263],[-3.95913,-0.98801],[1.77408,0.44273]],[[464.66989,336.01826],[-1.34422,-0.6761],[-0.12186,-4.07612]],[[464.14573,323.74494],[0,4.12824],[0,-7.61729]],[[465.79758,301.08969],[-0.6987,7.53859],[0.56817,-6.13023]],[[466.88704,282.54684],[-0.48184,6.14904],[0.17043,-2.17502]],[[467.9902,276.09541],[-0.16849,2.17517],[0.77749,-10.037]],[[470.16417,245.95638],[-1.4231,9.9617],[-0.01674,-6.80114]],[[471.26973,225.05891],[-1.02809,6.71321],[0.57011,-3.72267]],[[472.35628,214.67954],[0.34969,3.81572],[-1.18562,-12.93726]],[[467.97647,175.78287],[-0.00914,13.07736],[-3.75393,-29.78302]],[[460.32144,86.52937],[-2.19077,30.20713],[-0.00137,-4.36749]],[[460.45423,73.3607],[-0.21678,4.36334],[0.44596,-8.97601]],[[461.97166,46.33946],[0.70202,9.01045],[-0.31471,-4.0393]],[[460.32611,34.24605],[0.27659,4.06153],[-0.1867,-2.74157]],[[459.59047,24.98287],[0.96439,2.71653],[-0.35614,-1.00318]],[[456.80768,24.54453],[0.31621,-0.00868],[-3.09122,0.08483]],[[447.51618,24.54453],[3.09232,0],[-2.08102,-0.00603]],[[441.29783,23.98946],[2.07215,0.19203],[-7.24134,-0.67106]],[[419.09513,23.99798],[7.27606,0],[-14.75709,0]],[[374.82387,23.99798],[14.75709,0],[-11.01093,0]],[[341.73013,24.53237],[10.92367,-0.97521],[-4.35374,0.38868]],[[328.57258,24.53602],[4.35291,-0.36868],[-5.57299,0.47202]],[[311.91335,26.68222],[5.5183,-1.10721],[0,0]]],&quot;closed&quot;:true}]}" fill="#ff9400" stroke-width="0.5"/></g></g></svg>