<svg version="1.1" xmlns="http://www.w3.org/2000/svg" xmlns:xlink="http://www.w3.org/1999/xlink" width="173.44454" height="68.1688" viewBox="0,0,173.44454,68.1688"><defs><linearGradient x1="236.4169" y1="143.11526" x2="236.4169" y2="199.98908" gradientUnits="userSpaceOnUse" id="color-1"><stop offset="0" stop-color="#ff6300"/><stop offset="1" stop-color="#000000"/></linearGradient></defs><g transform="translate(-149.70677,-136.49998)"><g data-paper-data="{&quot;isPaintingLayer&quot;:true}" fill-rule="nonzero" stroke="none" stroke-linecap="butt" stroke-linejoin="miter" stroke-miterlimit="10" stroke-dasharray="" stroke-dashoffset="0" style="mix-blend-mode: normal"><path d="M158.5,136.5c1.89798,0 2.35503,1.44093 2.46509,2.1349c4.59194,-0.60596 9.52649,-0.65483 13.84037,-0.11617c2.72756,0.34058 5.27817,1.61635 8,2c3.0291,0.42695 6.08733,0.50384 9.095,1.01355c2.36135,0.40018 4.5273,1.69899 6.905,1.98645c6.23112,0.75333 12.56085,1.29299 18.80179,1.99807c2.63449,0.29764 5.24153,0.99546 7.89275,0.9832c18.91931,0 37.78111,2.27213 56.67135,0.19163c2.3277,-0.25637 4.7046,0.15576 7.0232,-0.1729c2.37132,-0.33613 4.54365,-1.58627 6.905,-1.98645c1.86746,-0.31648 3.82012,-0.28407 5.60989,-0.90399c2.54909,-0.82411 9.18707,-2.60766 11.55834,-0.39606c1.07819,1.00559 0.36847,2.93071 0.69995,4.36731c0.83279,3.60918 0.71176,7.09713 1.90399,10.60989c1.27044,3.74319 2.09581,8.17028 3.87408,11.69219c1.11667,2.2116 2.79085,4.25819 3.22193,6.69792c0.62919,3.56096 -0.52249,6.45834 -1,9.80091c-0.18856,1.31993 0.1956,2.68109 0,4c-0.66453,4.48073 -3.17189,9.55847 -5.00594,13.62765c-5.49433,0.5811 -10.94116,0.47189 -16.46178,0.47189c-2.97878,0 -6.36016,0.39198 -9.30546,-0.01873c-4.04334,-0.56384 -7.95952,-1.40776 -12,-2c-4.59487,-0.6735 -9.48407,0.62962 -14.095,-0.01355c-1.04398,-0.14562 -1.9613,-0.82049 -3,-1c-5.72528,-0.98945 -12.79614,0.03228 -18.59954,0.03228c-19.48106,0 -38.48068,-2.76255 -57.40046,-6.03228c-5.48593,-0.94808 -12.03189,0.03228 -17.59954,0.03228c-4.918,0 -11.89975,1.603 -15.20419,-3.32036c-0.72152,-1.07501 -0.07098,-2.596 -0.27708,-3.87419c-0.43567,-2.70188 -1.65391,-5.27931 -2,-8c-0.16825,-1.32268 0.16538,-2.67696 0,-4c-0.66917,-5.35338 -1.90021,-11.20647 -0.98645,-16.70591c0.8468,-5.09644 3.17733,-10.44184 5.07431,-15.45801c-0.43969,-0.27176 -0.83337,-0.74089 -1.03194,-1.5352c-0.60634,-2.42536 1.81902,-3.0317 1.81902,-3.0317c0.03765,-0.00924 0.07536,-0.01844 0.11313,-0.0276l-0.00679,-0.54704c0,0 0,-2.5 2.5,-2.5zM160.52006,143.72947c-1.884,5.39559 -4.63041,11.16147 -5.55234,16.67099c-0.84193,5.03149 0.40231,10.40418 1.01355,15.29409c0.16538,1.32304 -0.16228,2.67658 0,4c0.33455,2.7283 1.66931,5.27123 2,8c0.08597,0.70941 -0.5576,1.46858 -0.27708,2.12581c0.52446,1.22878 3.17289,0.69029 3.79581,0.67964c2.33299,-0.03988 4.66667,0 7,0c5.88098,0 12.58611,-0.90547 18.40046,0.03228c3.01152,0.4857 5.98339,1.56906 9,2c1.31993,0.18856 2.68007,-0.18856 4,0c3.29842,0.4712 6.55209,1.49499 9.905,1.98645c2.34,0.34299 4.75267,-0.31318 7.095,0.01355c1.04398,0.14562 1.95706,0.84707 3,1c2.60713,0.38229 5.2896,-0.33435 7.905,-0.01355c1.36415,0.16732 2.6343,0.84587 4,1c3.68254,0.41561 7.97081,-0.01873 11.69454,-0.01873c6.14255,0 13.32665,-0.94732 19.40046,0.03228c1.04064,0.16784 1.95706,0.84707 3,1c4.52995,0.66425 9.35857,-0.64754 13.905,-0.01355c4.04334,0.56384 7.95952,1.40776 12,2c7.1502,1.04806 15.28101,-1.67949 22.23277,0.45316c0.18908,-3.69997 2.50357,-6.78598 2.99406,-10.37235c0.18067,-1.32104 -0.18856,-2.68007 0,-4c0.41214,-2.88498 1.46673,-5.13152 1,-8.19909c-0.42792,-2.81248 -1.41928,-2.56016 -2.77807,-5.30208c-1.8516,-3.73636 -2.82471,-8.34082 -4.12592,-12.30781c-0.87906,-2.67998 -0.74617,-5.59143 -1.09601,-8.39011c-0.13074,-1.04595 -0.93187,-1.94811 -1,-3c-0.03827,-0.5909 1.00127,-1.12295 0.69995,-1.63269c-0.24313,-0.4113 -0.76222,0.64638 -1.23223,0.73223c-1.73196,0.31638 -3.54578,0.29547 -5.20943,0.87171c-2.05635,0.66481 -4.25732,0.74715 -6.39011,1.09601c-2.42615,0.39684 -4.66163,1.66368 -7.095,2.01355c-2.3476,0.33754 -4.75589,-0.08115 -7.11287,0.18311c-19.06223,2.13724 -38.1035,-0.16438 -57.19259,-0.16438c-2.85227,-0.01139 -5.66165,-0.69944 -8.49591,-1.01971c-6.23761,-0.70485 -12.5877,-1.1985 -18.80955,-1.99902c-2.4383,-0.31372 -4.66884,-1.61671 -7.095,-2.01355c-2.95221,-0.48289 -5.94432,-0.55817 -8.905,-0.98645c-2.72042,-0.39352 -5.27254,-1.65864 -8,-2c-4.22178,-0.52838 -9.20783,-0.45865 -13.67449,0.2482z" fill="#000000" stroke-width="0.5"/><path d="M174.14897,143.46071c2.72746,0.34136 5.28009,1.60537 8.00051,1.99889c2.96069,0.42828 5.95411,0.50101 8.90632,0.9839c2.42615,0.39684 4.65764,1.69821 7.09594,2.01193c6.22185,0.80052 12.58086,1.28324 18.81847,1.98809c2.83426,0.32027 5.65361,1.00118 8.50588,1.01257c19.08909,0 38.2002,2.32579 57.26244,0.18855c2.35697,-0.26426 4.76613,0.15657 7.11373,-0.18097c2.43337,-0.34987 4.66901,-1.61626 7.09516,-2.0131c2.1328,-0.34886 4.33404,-0.43043 6.39039,-1.09524c1.66365,-0.57624 3.47766,-0.55478 5.20962,-0.87116c0.47001,-0.08586 0.98904,-1.14372 1.23217,-0.73242c0.30132,0.50974 -0.73795,1.04262 -0.69968,1.63351c0.06813,1.05189 0.86984,1.95603 1.00059,3.00199c0.34984,2.79869 0.21812,5.71556 1.09718,8.39554c1.30121,3.96699 2.27493,8.57958 4.12653,12.31593c1.35879,2.74191 2.35002,2.49282 2.77794,5.3053c0.46673,3.06757 -0.58847,5.31912 -1.00061,8.2041c-0.18856,1.31993 0.1802,2.6813 -0.00047,4.00234c-0.49048,3.58637 -2.80682,6.67865 -2.9959,10.37862c-6.95176,-2.13265 -15.08489,0.60024 -22.23508,-0.44782c-4.04048,-0.59224 -7.95839,-1.43302 -12.00173,-1.99686c-4.54643,-0.63399 -9.38044,0.68518 -13.91039,0.02093c-1.04294,-0.15293 -1.9605,-0.83091 -3.00114,-0.99875c-6.07381,-0.9796 -13.28062,-0.01849 -19.42317,-0.01849c-3.72373,0 -8.03474,0.43541 -11.71728,0.0198c-1.3657,-0.15413 -2.64368,-0.83479 -4.00783,-1.00211c-2.6154,-0.3208 -5.30933,0.38997 -7.91646,0.00767c-1.04294,-0.15293 -1.96002,-0.85744 -3.004,-1.00307c-2.34233,-0.32673 -4.76048,0.324 -7.10048,-0.01899c-3.35291,-0.49146 -6.61208,-1.52301 -9.9105,-1.99421c-1.31993,-0.18856 -2.68111,0.18664 -4.00105,-0.00192c-3.01661,-0.43094 -5.99077,-1.51939 -9.00229,-2.0051c-5.81435,-0.93775 -12.52095,-0.03674 -18.40193,-0.03674c-2.33333,0 -4.66732,-0.04105 -7.00031,-0.00118c-0.62292,0.01065 -3.27159,0.54818 -3.79605,-0.6806c-0.28052,-0.65724 0.36279,-1.41763 0.27681,-2.12704c-0.33069,-2.72877 -1.66622,-5.27674 -2.00077,-8.00504c-0.16228,-1.32342 0.16519,-2.67943 -0.00019,-4.00246c-0.61124,-4.88991 -1.85509,-10.27195 -1.01315,-15.30344c0.92192,-5.50952 3.67092,-11.28583 5.55493,-16.68142c4.46665,-0.70685 9.45408,-0.77993 13.67585,-0.25155z" data-paper-data="{&quot;noHover&quot;:false,&quot;origItem&quot;:[&quot;Path&quot;,{&quot;applyMatrix&quot;:true,&quot;segments&quot;:[[[160.52006,143.72947],[4.46665,-0.70685],[-1.884,5.39559]],[[154.96772,160.40046],[0.92192,-5.50952],[-0.84193,5.03149]],[[155.98127,175.69454],[-0.61124,-4.88991],[0.16538,1.32304]],[[155.98127,179.69454],[-0.16228,-1.32342],[0.33455,2.7283]],[[157.98127,187.69454],[-0.33069,-2.72877],[0.08597,0.70941]],[[157.70419,189.82036],[-0.28052,-0.65724],[0.52446,1.22878]],[[161.5,190.5],[-0.62292,0.01065],[2.33299,-0.03988]],[[168.5,190.5],[-2.33333,0],[5.88098,0]],[[186.90046,190.53228],[-5.81435,-0.93775],[3.01152,0.4857]],[[195.90046,192.53228],[-3.01661,-0.43094],[1.31993,0.18856]],[[199.90046,192.53228],[-1.31993,-0.18856],[3.29842,0.4712]],[[209.80546,194.51873],[-3.35291,-0.49146],[2.34,0.34299]],[[216.90046,194.53228],[-2.34233,-0.32673],[1.04398,0.14562]],[[219.90046,195.53228],[-1.04294,-0.15293],[2.60713,0.38229]],[[227.80546,195.51873],[-2.6154,-0.3208],[1.36415,0.16732]],[[231.80546,196.51873],[-1.3657,-0.15413],[3.68254,0.41561]],[[243.5,196.5],[-3.72373,0],[6.14255,0]],[[262.90046,196.53228],[-6.07381,-0.9796],[1.04064,0.16784]],[[265.90046,197.53228],[-1.04294,-0.15293],[4.52995,0.66425]],[[279.80546,197.51873],[-4.54643,-0.63399],[4.04334,0.56384]],[[291.80546,199.51873],[-4.04048,-0.59224],[7.1502,1.04806]],[[314.03822,199.97189],[-6.95176,-2.13265],[0.18908,-3.69997]],[[317.03228,189.59954],[-0.49048,3.58637],[0.18067,-1.32104]],[[317.03228,185.59954],[-0.18856,1.31993],[0.41214,-2.88498]],[[318.03228,177.40046],[0.46673,3.06757],[-0.42792,-2.81248]],[[315.25421,172.09838],[1.35879,2.74191],[-1.8516,-3.73636]],[[311.12829,159.79057],[1.30121,3.96699],[-0.87906,-2.67998]],[[310.03228,151.40046],[0.34984,2.79869],[-0.13074,-1.04595]],[[309.03228,148.40046],[0.06813,1.05189],[-0.03827,-0.5909]],[[309.73223,146.76777],[0.30132,0.50974],[-0.24313,-0.4113]],[[308.5,147.5],[0.47001,-0.08586],[-1.73196,0.31638]],[[303.29057,148.37171],[1.66365,-0.57624],[-2.05635,0.66481]],[[296.90046,149.46772],[2.1328,-0.34886],[-2.42615,0.39684]],[[289.80546,151.48127],[2.43337,-0.34987],[-2.3476,0.33754]],[[282.69259,151.66438],[2.35697,-0.26426],[-19.06223,2.13724]],[[225.5,151.5],[19.08909,0],[-2.85227,-0.01139]],[[217.00409,150.48029],[2.83426,0.32027],[-6.23761,-0.70485]],[[198.19454,148.48127],[6.22185,0.80052],[-2.4383,-0.31372]],[[191.09954,146.46772],[2.42615,0.39684],[-2.95221,-0.48289]],[[182.19454,145.48127],[2.96069,0.42828],[-2.72042,-0.39352]],[[174.19454,143.48127],[2.72746,0.34136],[-4.22178,-0.52838]]],&quot;closed&quot;:true}]}" fill="url(#color-1)" stroke-width="0.5"/><text transform="translate(161.78084,180.98545) scale(0.78169,0.78169)" font-size="40" xml:space="preserve" fill="#000000" fill-rule="nonzero" stroke="none" stroke-width="1" stroke-linecap="butt" stroke-linejoin="miter" stroke-miterlimit="10" stroke-dasharray="" stroke-dashoffset="0" font-family="Serif" font-weight="normal" text-anchor="start" style="mix-blend-mode: normal"><tspan x="0" dy="0">buy $10000</tspan></text></g></g></svg>