<svg version="1.1" xmlns="http://www.w3.org/2000/svg" xmlns:xlink="http://www.w3.org/1999/xlink" width="159.15633" height="94.15288" viewBox="0,0,159.15633,94.15288"><defs><radialGradient cx="229" cy="181" r="24" gradientUnits="userSpaceOnUse" id="color-1"><stop offset="0" stop-color="#7d7436"/><stop offset="1" stop-color="#5d5d5d"/></radialGradient><radialGradient cx="282.5" cy="197" r="17" gradientUnits="userSpaceOnUse" id="color-2"><stop offset="0" stop-color="#7d7436"/><stop offset="1" stop-color="#5d5d5d"/></radialGradient><radialGradient cx="200.5" cy="199.5" r="13.5" gradientUnits="userSpaceOnUse" id="color-3"><stop offset="0" stop-color="#7d7436"/><stop offset="1" stop-color="#5d5d5d"/></radialGradient><radialGradient cx="247" cy="163" r="16" gradientUnits="userSpaceOnUse" id="color-4"><stop offset="0" stop-color="#7d7436"/><stop offset="1" stop-color="#5d5d5d"/></radialGradient><radialGradient cx="250" cy="192.5" r="18" gradientUnits="userSpaceOnUse" id="color-5"><stop offset="0" stop-color="#7d7436"/><stop offset="1" stop-color="#5d5d5d"/></radialGradient></defs><g transform="translate(-159.92841,-132.85275)"><g data-paper-data="{&quot;isPaintingLayer&quot;:true}" fill-rule="nonzero" stroke="#000000" stroke-width="4" stroke-linejoin="miter" stroke-miterlimit="10" stroke-dasharray="" stroke-dashoffset="0" style="mix-blend-mode: normal"><path d="M296,225l16,-2l5,-44l-33,-39l-11,12l-31,-17l-46,13l-33,71z" fill="#7d7d7d" stroke-linecap="round"/><path d="M253,181c0,12.15026 -10.74517,22 -24,22c-13.25483,0 -24,-9.84974 -24,-22c0,-12.15026 10.74517,-22 24,-22c13.25483,0 24,9.84974 24,22z" fill="url(#color-1)" stroke-linecap="butt"/><path d="M299,197c0,9.38884 -7.3873,17 -16.5,17c-9.1127,0 -16.5,-7.61116 -16.5,-17c0,-9.38884 7.3873,-17 16.5,-17c9.1127,0 16.5,7.61116 16.5,17z" fill="url(#color-2)" stroke-linecap="butt"/><path d="M214,199.5c0,6.90356 -6.04416,12.5 -13.5,12.5c-7.45584,0 -13.5,-5.59644 -13.5,-12.5c0,-6.90356 6.04416,-12.5 13.5,-12.5c7.45584,0 13.5,5.59644 13.5,12.5z" fill="url(#color-3)" stroke-linecap="butt"/><path d="M263,163c0,8.83656 -7.16344,16 -16,16c-8.83656,0 -16,-7.16344 -16,-16c0,-8.83656 7.16344,-16 16,-16c8.83656,0 16,7.16344 16,16z" fill="url(#color-4)" stroke-linecap="butt"/><path d="M268,192.5c0,-9.66498 -8.05887,-17.5 -18,-17.5c-9.94113,0 -18,7.83502 -18,17.5c0,9.66498 8.05887,17.5 18,17.5c9.94113,0 18,-7.83502 18,-17.5z" fill="url(#color-5)" stroke-linecap="butt"/></g></g></svg>