<svg version="1.1" xmlns="http://www.w3.org/2000/svg" xmlns:xlink="http://www.w3.org/1999/xlink" width="159.15633" height="94.15288" viewBox="0,0,159.15633,94.15288"><defs><radialGradient cx="229" cy="181" r="24" gradientUnits="userSpaceOnUse" id="color-1"><stop offset="0" stop-color="#7d7436"/><stop offset="1" stop-color="#5d5d5d"/></radialGradient><radialGradient cx="200.5" cy="199.5" r="13.5" gradientUnits="userSpaceOnUse" id="color-2"><stop offset="0" stop-color="#7d7436"/><stop offset="1" stop-color="#5d5d5d"/></radialGradient><radialGradient cx="250" cy="192.5" r="18" gradientUnits="userSpaceOnUse" id="color-3"><stop offset="0" stop-color="#7d7436"/><stop offset="1" stop-color="#5d5d5d"/></radialGradient></defs><g transform="translate(-159.9284,-132.85275)"><g data-paper-data="{&quot;isPaintingLayer&quot;:true}" fill-rule="nonzero" stroke="#000000" stroke-width="4" stroke-linejoin="miter" stroke-miterlimit="10" stroke-dasharray="" stroke-dashoffset="0" style="mix-blend-mode: normal"><path d="M163,219l33,-71l46,-13l31,17l11,-12l33,39l-5,44l-16,2z" fill="#7d7d7d" stroke-linecap="round"/><path d="M253,181c0,12.15026 -10.74517,22 -24,22c-13.25483,0 -24,-9.84974 -24,-22c0,-12.15026 10.74517,-22 24,-22c13.25483,0 24,9.84974 24,22z" fill="url(#color-1)" stroke-linecap="butt"/><path d="M214,199.5c0,6.90356 -6.04416,12.5 -13.5,12.5c-7.45584,0 -13.5,-5.59644 -13.5,-12.5c0,-6.90356 6.04416,-12.5 13.5,-12.5c7.45584,0 13.5,5.59644 13.5,12.5z" fill="url(#color-2)" stroke-linecap="butt"/><path d="M250,210c-9.94113,0 -18,-7.83502 -18,-17.5c0,-9.66498 8.05887,-17.5 18,-17.5c9.94113,0 18,7.83502 18,17.5c0,9.66498 -8.05887,17.5 -18,17.5z" fill="url(#color-3)" stroke-linecap="butt"/></g></g></svg>