<svg version="1.1" xmlns="http://www.w3.org/2000/svg" xmlns:xlink="http://www.w3.org/1999/xlink" width="167.7903" height="72.43071" viewBox="0,0,167.7903,72.43071"><g transform="translate(-138.79444,-162.01576)"><g data-paper-data="{&quot;isPaintingLayer&quot;:true}" fill-rule="nonzero" stroke-width="4" stroke-linejoin="miter" stroke-miterlimit="10" stroke-dasharray="" stroke-dashoffset="0" style="mix-blend-mode: normal"><path d="M280.85583,173.22852l6.22439,34.80312l16.24615,1.03087l-2.53104,13.16332c-1.54819,-1.0109 -3.12039,-1.99664 -4.68076,-3.04993c-9.03912,-6.10163 -18.56855,-12.04941 -28.80804,-15.92605c-3.62861,-1.37378 -7.45218,-1.99549 -11.08795,-3.33982c-1.57888,-0.57956 -3.08167,-1.17854 -4.58202,-1.70013c0.81683,-2.05395 1.69699,-4.08375 2.69303,-6.07801c4.61224,-9.23462 10.77331,-17.66564 14.99873,-27.07725z" fill="#7d7d7d" stroke="#000000" stroke-linecap="butt"/><path d="M233.24827,205.65706c-12.52634,2.51514 -25.12479,5.14459 -37.35177,8.78986c-4.47925,1.33541 -10.115,1.4088 -12.89503,5.92882c-0.73059,1.18786 -0.3189,2.77081 -0.47835,4.15621c-0.18195,0.90057 -0.4299,1.77347 -0.72909,2.62469c-0.22999,-0.07078 -0.46016,-0.1407 -0.69053,-0.20971c-1.1881,-0.35597 -2.37197,-0.60902 -3.5547,-0.86107c-0.91082,-1.52761 -1.84188,-3.04116 -2.72571,-4.5297c-0.63228,-1.05075 -1.27146,-2.092 -1.91068,-3.12931c1.42103,-0.85042 2.97073,-1.56732 4.28145,-2.35375c3.27599,-1.9745 6.13778,-4.54978 9.4403,-6.46477c8.87061,-5.1437 18.75427,-8.56529 28.51968,-11.57051c3.09945,-0.95383 6.06567,-2.15084 9.18727,-2.90739z" fill="#7d7d7d" stroke="#000000" stroke-linecap="butt"/><path d="M304.5,215.00001l-1.95608,17.21354c-2.65533,-0.32856 -5.36564,-0.47411 -8.32586,-0.44043l-2.0365,-0.43087c0,0 -1.82735,-0.36547 -3.42181,0.50599c-4.48003,-1.31069 -8.65703,-3.55949 -13.15624,-4.90131c-5.70404,-1.70115 -11.90674,-2.73366 -17.9635,-3.07283c2.29383,-0.70387 4.73958,-1.86382 6.2438,-2.41391c4.14307,-1.51511 8.54358,-1.89008 12.83344,-2.8097c7.52853,-1.6139 14.93081,-3.48786 22.46431,-4.99272c0,0 1.67861,-0.33572 2.81887,-1.61179z" fill="#7d7d7d" stroke="#000000" stroke-linecap="butt"/><path d="M288.37342,225.71385c-2.22434,-1.1786 -4.53773,-2.12675 -6.79628,-3.35473c-4.26801,-2.32054 -7.6601,-6.37528 -11.82992,-8.89971c-3.89402,-2.35746 -7.70643,-4.93225 -11.67008,-7.10029c-1.60181,-0.87616 -3.23294,-1.47817 -4.8485,-2.17773c2.79296,0.45508 5.54487,1.07811 8.16786,1.87169c5.4008,1.634 10.37736,4.56696 15.95524,5.61121c2.90006,0.54293 6.4462,0.08571 9.39826,0.08571c0,0 1.17256,0 2.35252,-0.58258c0.30743,0.01033 0.61385,0.02454 0.91896,0.04349z" fill="#7d7d7d" stroke="#000000" stroke-linecap="butt"/><path d="M281,226.50001l-26.99368,-1.21776c-0.46962,-1.40668 -0.91538,-2.82954 -1.61543,-4.10939c-2.04032,-3.73016 -4.52069,-7.3512 -6.39648,-11.23952l0.37987,-0.18481c0,0 3.65073,-1.82536 2.4918,-5.47609c2.09493,0.82133 4.18293,1.66259 6.27321,2.48284c2.34611,1.40767 4.95389,2.06565 7.28358,3.38561c3.83946,2.17537 7.50274,4.62722 11.32992,6.89971c4.20228,2.49521 7.58941,6.40054 11.80523,8.88967z" fill="#7d7d7d" stroke="#000000" stroke-linecap="butt"/><path d="M254.15763,196.78591c-0.00534,0.02057 -0.01061,0.04125 -0.01581,0.06205c-1.15204,4.60818 3.45613,5.76022 3.45613,5.76022l1.64996,0.39807c0.36331,0.12003 0.72711,0.23008 1.09124,0.33262c0.22576,0.42411 0.44482,0.84822 0.65557,1.27185c0.64941,1.30543 1.1942,2.66837 1.6973,4.05474c-4.91156,1.33322 -9.93126,2.32407 -14.79553,3.78146c-7.56223,2.26572 -14.7569,6.30729 -21.77077,9.80455c0,0 -3.23015,1.61508 -2.64912,4.84523l-34.72742,-1.56665c11.77036,-5.43073 23.71322,-10.29768 35.81855,-15.14162c5.44329,-2.33284 11.01934,-4.47366 16.29298,-7.13316c3.87158,-1.95244 7.29695,-4.95447 10.74921,-7.58472c0.8529,0.36911 1.70225,0.74442 2.5477,1.11535z" fill="#7d7d7d" stroke="#000000" stroke-linecap="butt"/><path d="M258.52564,223.30944l-36.15288,-1.63096c4.61685,-2.3605 9.34311,-4.65644 14.23074,-6.1254c5.0728,-1.52461 10.25416,-2.61686 15.35319,-4.02013c1.8711,4.0805 4.33685,7.92422 6.56895,11.77648z" fill="#7d7d7d" stroke="#000000" stroke-linecap="butt"/><path d="M205.19561,190.92763c2.38726,0.8973 4.74002,1.89624 7.20089,2.62545c9.13694,2.70748 19.02076,3.89231 28.46171,4.68073c2.28517,0.19084 4.38631,0.39042 6.50756,0.39709c-0.07533,0.0385 -0.15083,0.07645 -0.22651,0.11382c-5.11248,2.52478 -10.4509,4.61422 -15.70702,6.86684c-13.98046,5.59001 -27.74987,11.2285 -41.28758,17.69837z" fill="#7d7d7d" stroke="#000000" stroke-linecap="butt"/><path d="M163.25926,193.77275c4.34036,-0.38017 8.66502,-0.73217 13.05613,-0.1632c4.58327,0.55503 8.95497,1.64142 13.48271,2.56494c1.70738,0.34825 3.43198,0.80641 5.18092,0.89987c-4.91336,5.08744 -10.19409,10.08514 -15.91485,14.06492c-1.7322,1.20505 -3.52789,2.27209 -5.31262,3.35056z" fill="#7d7d7d" stroke="#000000" stroke-linecap="butt"/><path d="M159.07628,188.97845c5.31411,9.40621 7.91534,20.17715 12.35828,30.00637c1.11061,2.45703 2.37021,4.82261 3.70491,7.14731c-0.08519,-0.03089 -0.17042,-0.06167 -0.25568,-0.09231c-5.32017,-1.91247 -10.81769,-2.85424 -15.74443,-5.80998c-1.06731,-0.64032 -1.08697,-2.23948 -1.64083,-3.35411c-2.16828,-4.36359 -4.19221,-8.63734 -6.67544,-12.81959c-2.35447,-3.90643 -5.32905,-7.15369 -8.33636,-10.38934z" fill="#7d7d7d" stroke="#000000" stroke-linecap="butt"/><path d="" fill="#a2ffff" stroke="#d0f6ff" stroke-linecap="round"/></g></g></svg>